<svg width="510.001" height="510.001" xmlns="http://www.w3.org/2000/svg">
 <style type="text/css">.st0 {
			fill: #6DB33F;
		}</style>

 <g>
  <title>background</title>
  <rect fill="none" id="canvas_background" height="402" width="582" y="-1" x="-1"/>
 </g>
 <g>
  <title>Layer 1</title>
  <path stroke="null" id="svg_1" d="m462.723366,29.890239c-6.79812,16.733835 -16.210903,32.944737 -27.192482,47.586843c-97.265415,-100.925941 -257.805643,-103.540603 -358.208652,-6.275188s-103.540603,257.805643 -6.275188,358.208652c3.137594,3.660526 6.79812,6.79812 10.458647,9.935714l9.412782,8.366917c106.678197,89.944362 266.695493,76.348121 356.639855,-30.330076c34.513534,-40.788722 55.430828,-92.036092 59.091354,-145.37519c7.321053,-63.274813 -12.027444,-144.852258 -43.926316,-242.117673zm-344.612411,412.070683c-7.321053,9.412782 -20.917294,10.458647 -30.330076,3.137594s-10.458647,-20.917294 -3.137594,-30.330076s20.917294,-10.458647 30.330076,-3.137594c8.88985,7.321053 10.458647,20.917294 3.137594,30.330076zm343.043614,-75.825189c-62.228948,83.146242 -196.099627,54.907896 -281.337598,59.091354c0,0 -15.165038,1.045865 -30.330076,3.137594c0,0 5.752256,-2.614662 13.073308,-5.229323c60.137219,-20.917294 88.375565,-25.100752 124.980829,-43.926316c68.504136,-35.036467 137.008273,-111.90752 150.604514,-191.393236c-26.146617,76.348121 -105.632332,142.237596 -177.796995,168.907145c-49.678572,18.302632 -139.100002,36.082331 -139.100002,36.082331l-3.660526,-2.091729c-60.660151,-29.807143 -62.751881,-161.586093 48.109775,-203.943612c48.632708,-18.825564 94.650753,-8.366917 147.46692,-20.917294c55.95376,-13.073308 120.79737,-54.907896 146.943987,-109.815791c29.284211,88.375565 64.84361,225.383838 1.045865,310.098877z" class="st0"/>
 </g>
</svg>